# xmcd CD database file
#
# Track frame offsets:
#	187
#	33100
#	64675
#	95575
#	122275
#	160675
#	192475
#	222325
#
# Disc length: 3346 seconds
#
# Revision: 0
# Processed by: cddbd v1.5.1PL0 Copyright (c) Steve Scherf et al.
# Submitted via: CDex 1.51
#
DISCID=640d1008
DTITLE=Peter Leitch - Exhilaration
DYEAR=1900
DGENRE=Jazz
TTITLE0=Exhilaration
TTITLE1='Round Midnight
TTITLE2=Trinkle, Tinkle
TTITLE3=But Not for Me
TTITLE4=Played Twice
TTITLE5=How Deep Is the Ocean?
TTITLE6=Pannonica
TTITLE7=Slugs in the Far East
EXTD=
EXTT0=
EXTT1=
EXTT2=
EXTT3=
EXTT4=
EXTT5=
EXTT6=
EXTT7=
PLAYORDER=
